# Blender v2.79 (sub 0) OBJ File: ''
# www.blender.org
mtllib Cilindro.mtl
o Cylinder_Cylinder.001
v 0.029719 1.660744 1.517332
v 0.030412 0.657503 1.517332
v -0.068148 1.660676 1.507757
v -0.067455 0.657436 1.507756
v -0.162267 1.660611 1.479272
v -0.161574 0.657371 1.479271
v -0.249020 1.660552 1.432973
v -0.248328 0.657311 1.432972
v -0.325074 1.660499 1.370639
v -0.324381 0.657258 1.370638
v -0.387506 1.660456 1.294665
v -0.386813 0.657215 1.294664
v -0.433916 1.660424 1.207971
v -0.433223 0.657183 1.207971
v -0.462521 1.660404 1.113889
v -0.461829 0.657164 1.113889
v -0.472223 1.660398 1.016034
v -0.471530 0.657157 1.016033
v -0.462647 1.660404 0.918166
v -0.461954 0.657164 0.918166
v -0.434162 1.660424 0.824048
v -0.433470 0.657183 0.824047
v -0.387863 1.660456 0.737294
v -0.387171 0.657215 0.737294
v -0.325529 1.660499 0.661240
v -0.324837 0.657258 0.661240
v -0.249555 1.660552 0.598809
v -0.248863 0.657311 0.598808
v -0.162861 1.660612 0.552398
v -0.162169 0.657371 0.552398
v -0.068779 1.660676 0.523793
v -0.068087 0.657436 0.523792
v 0.029076 1.660744 0.514092
v 0.029768 0.657503 0.514091
v 0.126943 1.660812 0.523667
v 0.127636 0.657571 0.523667
v 0.221062 1.660877 0.552152
v 0.221755 0.657636 0.552152
v 0.307815 1.660936 0.598451
v 0.308508 0.657696 0.598451
v 0.383869 1.660989 0.660785
v 0.384562 0.657748 0.660785
v 0.446301 1.661032 0.736759
v 0.446994 0.657791 0.736759
v 0.492711 1.661064 0.823453
v 0.493404 0.657823 0.823453
v 0.521317 1.661084 0.917535
v 0.522009 0.657843 0.917535
v 0.531018 1.661090 1.015391
v 0.531710 0.657849 1.015390
v 0.521442 1.661084 1.113258
v 0.522135 0.657843 1.113258
v 0.492957 1.661064 1.207377
v 0.493650 0.657823 1.207376
v 0.446658 1.661032 1.294130
v 0.447351 0.657791 1.294130
v 0.384324 1.660989 1.370184
v 0.385016 0.657748 1.370183
v 0.308350 1.660936 1.432616
v 0.309042 0.657696 1.432615
v 0.221656 1.660877 1.479026
v 0.222349 0.657636 1.479025
v 0.127574 1.660811 1.507631
v 0.128266 0.657571 1.507631
vn 0.0006 -0.0000 1.0000
vn -0.1945 -0.0001 0.9809
vn -0.3821 -0.0003 0.9241
vn -0.5550 -0.0004 0.8318
vn -0.7067 -0.0005 0.7076
vn -0.8311 -0.0006 0.5561
vn -0.9236 -0.0006 0.3833
vn -0.9807 -0.0007 0.1957
vn -1.0000 -0.0007 0.0006
vn -0.9809 -0.0007 -0.1945
vn -0.9241 -0.0006 -0.3821
vn -0.8318 -0.0006 -0.5550
vn -0.7076 -0.0005 -0.7067
vn -0.5561 -0.0004 -0.8311
vn -0.3833 -0.0003 -0.9236
vn -0.1957 -0.0001 -0.9807
vn -0.0006 0.0000 -1.0000
vn 0.1945 0.0001 -0.9809
vn 0.3821 0.0003 -0.9241
vn 0.5550 0.0004 -0.8318
vn 0.7067 0.0005 -0.7076
vn 0.8311 0.0006 -0.5561
vn 0.9236 0.0006 -0.3833
vn 0.9807 0.0007 -0.1957
vn 1.0000 0.0007 -0.0006
vn 0.9809 0.0007 0.1945
vn 0.9241 0.0006 0.3821
vn 0.8318 0.0006 0.5550
vn 0.7076 0.0005 0.7067
vn 0.5561 0.0004 0.8311
vn 0.3833 0.0003 0.9236
vn 0.0007 -1.0000 -0.0000
vn 0.1957 0.0001 0.9807
vn -0.0007 1.0000 0.0000
usemtl Material.003
s 1
f 1//1 3//2 4//2 2//1
f 3//2 5//3 6//3 4//2
f 5//3 7//4 8//4 6//3
f 7//4 9//5 10//5 8//4
f 9//5 11//6 12//6 10//5
f 11//6 13//7 14//7 12//6
f 13//7 15//8 16//8 14//7
f 15//8 17//9 18//9 16//8
f 17//9 19//10 20//10 18//9
f 19//10 21//11 22//11 20//10
f 21//11 23//12 24//12 22//11
f 23//12 25//13 26//13 24//12
f 25//13 27//14 28//14 26//13
f 27//14 29//15 30//15 28//14
f 29//15 31//16 32//16 30//15
f 31//16 33//17 34//17 32//16
f 33//17 35//18 36//18 34//17
f 35//18 37//19 38//19 36//18
f 37//19 39//20 40//20 38//19
f 39//20 41//21 42//21 40//20
f 41//21 43//22 44//22 42//21
f 43//22 45//23 46//23 44//22
f 45//23 47//24 48//24 46//23
f 47//24 49//25 50//25 48//24
f 49//25 51//26 52//26 50//25
f 51//26 53//27 54//27 52//26
f 53//27 55//28 56//28 54//27
f 55//28 57//29 58//29 56//28
f 57//29 59//30 60//30 58//29
f 59//30 61//31 62//31 60//30
f 4//32 6//32 8//32 10//32 12//32 14//32 16//32 18//32 20//32 22//32 24//32 26//32 28//32 30//32 32//32 34//32 36//32 38//32 40//32 42//32 44//32 46//32 48//32 50//32 52//32 54//32 56//32 58//32 60//32 62//32 64//32 2//32
f 61//31 63//33 64//33 62//31
f 63//33 1//1 2//1 64//33
f 1//34 63//34 61//34 59//34 57//34 55//34 53//34 51//34 49//34 47//34 45//34 43//34 41//34 39//34 37//34 35//34 33//34 31//34 29//34 27//34 25//34 23//34 21//34 19//34 17//34 15//34 13//34 11//34 9//34 7//34 5//34 3//34
