# Blender v2.79 (sub 0) OBJ File: ''
# www.blender.org
mtllib cone.mtl
o Cone
v -0.072569 1.551780 0.465070
v 0.025146 1.551780 0.474694
v 0.119105 1.551780 0.503196
v 0.205698 1.551780 0.549481
v 0.281598 1.551780 0.611771
v 0.343887 1.551780 0.687670
v 0.390172 1.551780 0.774264
v 0.418675 1.551780 0.868223
v 0.428299 1.551780 0.965937
v 0.418675 1.551780 1.063652
v 0.390172 1.551780 1.157611
v 0.343887 1.551780 1.244205
v 0.281598 1.551780 1.320104
v 0.205698 1.551780 1.382394
v 0.119105 1.551780 1.428679
v 0.025145 1.551780 1.457181
v -0.072569 1.551780 1.466805
v -0.170283 1.551780 1.457181
v -0.264243 1.551780 1.428679
v -0.350836 1.551780 1.382393
v -0.426736 1.551780 1.320104
v -0.489025 1.551780 1.244204
v -0.535310 1.551780 1.157611
v -0.072569 2.553515 0.965937
v -0.563812 1.551780 1.063651
v -0.573436 1.551780 0.965937
v -0.563812 1.551780 0.868223
v -0.535310 1.551780 0.774263
v -0.489025 1.551780 0.687670
v -0.426735 1.551780 0.611770
v -0.350835 1.551780 0.549481
v -0.264242 1.551780 0.503196
v -0.170282 1.551780 0.474694
vn 0.0000 -0.5033 -0.8641
vn 0.0000 1.0000 0.0000
vn 0.1686 -0.5033 -0.8475
vn 0.3307 -0.5033 -0.7983
vn 0.4801 -0.5033 -0.7185
vn 0.6110 -0.5033 -0.6110
vn 0.7185 -0.5033 -0.4801
vn 0.7983 -0.5033 -0.3307
vn 0.8475 -0.5033 -0.1686
vn 0.8641 -0.5033 0.0000
vn 0.8475 -0.5033 0.1686
vn 0.7983 -0.5033 0.3307
vn 0.7185 -0.5033 0.4801
vn 0.6110 -0.5033 0.6110
vn 0.4801 -0.5033 0.7185
vn 0.3307 -0.5033 0.7983
vn 0.1686 -0.5033 0.8475
vn 0.0000 -0.5033 0.8641
vn -0.1686 -0.5033 0.8475
vn -0.3307 -0.5033 0.7983
vn -0.4801 -0.5033 0.7185
vn -0.6110 -0.5033 0.6110
vn -0.7185 -0.5033 0.4801
vn -0.7983 -0.5033 0.3307
vn -0.8475 -0.5033 0.1686
vn -0.8641 -0.5033 0.0000
vn -0.8475 -0.5033 -0.1686
vn -0.7983 -0.5033 -0.3307
vn -0.7185 -0.5033 -0.4801
vn -0.6110 -0.5033 -0.6110
vn -0.4801 -0.5033 -0.7185
vn -0.3307 -0.5033 -0.7983
vn -0.1686 -0.5033 -0.8475
usemtl Material.002
s 1
f 1//1 24//2 2//3
f 2//3 24//2 3//4
f 3//4 24//2 4//5
f 4//5 24//2 5//6
f 5//6 24//2 6//7
f 6//7 24//2 7//8
f 7//8 24//2 8//9
f 8//9 24//2 9//10
f 9//10 24//2 10//11
f 10//11 24//2 11//12
f 11//12 24//2 12//13
f 12//13 24//2 13//14
f 13//14 24//2 14//15
f 14//15 24//2 15//16
f 15//16 24//2 16//17
f 16//17 24//2 17//18
f 17//18 24//2 18//19
f 18//19 24//2 19//20
f 19//20 24//2 20//21
f 20//21 24//2 21//22
f 21//22 24//2 22//23
f 22//23 24//2 23//24
f 23//24 24//2 25//25
f 25//25 24//2 26//26
f 26//26 24//2 27//27
f 27//27 24//2 28//28
f 28//28 24//2 29//29
f 29//29 24//2 30//30
f 30//30 24//2 31//31
f 31//31 24//2 32//32
f 32//32 24//2 33//33
f 33//33 24//2 1//1
f 1//1 2//3 3//4 4//5 5//6 6//7 7//8 8//9 9//10 10//11 11//12 12//13 13//14 14//15 15//16 16//17 17//18 18//19 19//20 20//21 21//22 22//23 23//24 25//25 26//26 27//27 28//28 29//29 30//30 31//31 32//32 33//33
