# Blender v2.79 (sub 0) OBJ File: ''
# www.blender.org
mtllib CubeGlass.mtl
o Cube.001
v 0.090267 0.001732 -0.059552
v 0.090267 0.001732 0.080134
v -0.049419 0.001732 0.080134
v -0.049419 0.001732 -0.059552
v 0.090267 0.141418 -0.059552
v -0.049419 0.141418 -0.059552
v -0.049419 0.141418 0.080134
v 0.090267 0.141418 0.080134
vn 0.0000 -1.0000 -0.0000
vn 0.0000 1.0000 0.0000
vn 1.0000 0.0000 0.0000
vn 0.0000 -0.0000 1.0000
vn -1.0000 -0.0000 0.0000
vn 0.0000 0.0000 -1.0000
usemtl Material.001
s 1
f 1//1 2//1 3//1 4//1
f 5//2 6//2 7//2 8//2
f 1//3 5//3 8//3 2//3
f 2//4 8//4 7//4 3//4
f 3//5 7//5 6//5 4//5
f 5//6 1//6 4//6 6//6
o Cube
v 1.000000 -0.999983 -0.999983
v 1.000000 -0.999983 0.999983
v -1.000000 -0.999983 0.999983
v -1.000000 -0.999983 -0.999983
v 1.000000 0.999983 -0.999983
v 0.999999 0.999983 0.999984
v -1.000000 0.999983 0.999983
v -1.000000 0.999983 -0.999983
vn 0.5773 -0.5773 -0.5773
vn 0.5773 -0.5773 0.5773
vn -0.5773 -0.5773 0.5773
vn -0.5773 -0.5773 -0.5773
vn 0.5773 0.5773 -0.5773
vn -0.5773 0.5773 -0.5773
vn -0.5773 0.5773 0.5773
vn 0.5773 0.5773 0.5773
usemtl Material
s 1
f 9//7 10//8 11//9 12//10
f 13//11 16//12 15//13 14//14
f 9//7 13//11 14//14 10//8
f 10//8 14//14 15//13 11//9
f 11//9 15//13 16//12 12//10
f 13//11 9//7 12//10 16//12
